HIERARCHY
ROOT joint_0
{
	OFFSET 0.000000 0.000000 0.000000
	CHANNELS 6 Xposition Yposition Zposition Zrotation Yrotation Xrotation 
	JOINT joint_1
	{
		OFFSET 7.566162 2.250183 114.799927
		CHANNELS 3 Zrotation Yrotation Xrotation
		JOINT joint_2
		{
			OFFSET -5.201660 -0.414001 104.936035
			CHANNELS 3 Zrotation Yrotation Xrotation
			JOINT joint_3
			{
				OFFSET -6.923584 -0.419739 104.718018
				CHANNELS 3 Zrotation Yrotation Xrotation
				JOINT joint_4
				{
					OFFSET 3.108887 2.881104 149.449951
					CHANNELS 3 Zrotation Yrotation Xrotation
					JOINT joint_5
					{
						OFFSET 19.988770 5.920349 90.786987
						CHANNELS 3 Zrotation Yrotation Xrotation
						End Site
						{
							OFFSET 0.000000 0.000000 0.000000
						}
					}
				}
				JOINT joint_6
				{
					OFFSET 9.283936 -30.015930 84.410034
					CHANNELS 3 Zrotation Yrotation Xrotation
					JOINT joint_7
					{
						OFFSET 47.243164 -155.716736 -23.241089
						CHANNELS 3 Zrotation Yrotation Xrotation
						JOINT joint_8
						{
							OFFSET 31.323730 -15.356873 -268.798950
							CHANNELS 3 Zrotation Yrotation Xrotation
							JOINT joint_9
							{
								OFFSET 28.122314 -2.114624 -262.450012
								CHANNELS 3 Zrotation Yrotation Xrotation
								End Site
								{
									OFFSET 0.000000 0.000000 0.000000
								}
							}
						}
					}
				}
				JOINT joint_10
				{
					OFFSET -5.580566 33.311218 83.498047
					CHANNELS 3 Zrotation Yrotation Xrotation
					JOINT joint_11
					{
						OFFSET -22.773438 160.515381 -27.138062
						CHANNELS 3 Zrotation Yrotation Xrotation
						JOINT joint_12
						{
							OFFSET 27.004395 30.848877 -267.937988
							CHANNELS 3 Zrotation Yrotation Xrotation
							JOINT joint_13
							{
								OFFSET 32.625000 14.824585 -261.518005
								CHANNELS 3 Zrotation Yrotation Xrotation
								End Site
								{
									OFFSET 0.000000 0.000000 0.000000
								}
							}
						}
					}
				}
			}
		}
	}
	JOINT joint_14
	{
		OFFSET 20.623535 -83.447632 -106.174011
		CHANNELS 3 Zrotation Yrotation Xrotation
		JOINT joint_15
		{
			OFFSET 0.661865 -23.563843 -459.915039
			CHANNELS 3 Zrotation Yrotation Xrotation
			JOINT joint_16
			{
				OFFSET -23.461670 -28.727966 -444.760971
				CHANNELS 3 Zrotation Yrotation Xrotation
				JOINT joint_17
				{
					OFFSET 178.992920 54.047363 -80.113001
					CHANNELS 3 Zrotation Yrotation Xrotation
					End Site
					{
						OFFSET 0.000000 0.000000 0.000000
					}
				}
			}
		}
	}
	JOINT joint_18
	{
		OFFSET -19.571533 84.686279 -105.380005
		CHANNELS 3 Zrotation Yrotation Xrotation
		JOINT joint_19
		{
			OFFSET -22.949951 3.639404 -459.933044
			CHANNELS 3 Zrotation Yrotation Xrotation
			JOINT joint_20
			{
				OFFSET -33.690674 4.092651 -445.010971
				CHANNELS 3 Zrotation Yrotation Xrotation
				JOINT joint_21
				{
					OFFSET 187.419678 18.953857 -76.759001
					CHANNELS 3 Zrotation Yrotation Xrotation
					End Site
					{
						OFFSET 0.000000 0.000000 0.000000
					}
				}
			}
		}
	}
}
MOTION
Frames: 10
Frame Time: 0.016667
-3358.461670 914.798035 1112.032959 -16.360835 1.177778 -0.004974 0.289731 0.129470 2.266200 0.140317 -0.070464 -0.471894 0.193919 0.020172 0.345316 0.104387 0.371517 -0.559143 0.000000 0.000000 0.000000 0.610849 2.240573 -0.531727 0.097950 2.733092 0.797367 0.191145 0.014940 1.574647 0.000000 0.000000 0.000000 2.994017 2.637563 -2.082235 -0.201679 1.763052 -4.489714 0.329952 1.200603 1.806017 0.000000 0.000000 0.000000 -0.272367 1.135724 -0.870185 -0.122307 -2.362280 0.303136 -0.285536 -0.388041 -0.010296 0.000000 0.000000 0.000000 1.109045 -1.565447 1.619151 1.186688 0.261087 -0.203866 1.129060 -0.075004 0.470610 0.000000 0.000000 0.000000 
-3355.883545 914.615295 1111.891968 -16.398712 1.827969 -0.154449 0.238435 0.131565 2.192819 0.094668 -0.061670 -0.468401 0.147939 0.025475 0.340612 0.106943 -0.628169 -0.309034 0.000000 0.000000 0.000000 0.747167 2.550238 -0.807687 0.142899 3.201955 0.989342 0.319308 -1.145363 2.198144 0.000000 0.000000 0.000000 2.715747 3.071131 -1.828463 -0.156942 2.165168 -4.842566 0.211490 0.199657 1.534433 0.000000 0.000000 0.000000 -0.272608 0.606984 -0.763230 -0.133190 -2.455298 0.346732 -0.303015 -0.413781 -0.010262 0.000000 0.000000 0.000000 1.130015 -2.071446 1.742896 1.211037 0.143275 -0.212980 1.153252 -0.116151 0.484777 0.000000 0.000000 0.000000 
-3352.801758 914.329468 1111.711060 -16.456217 2.512338 -0.313723 0.198482 0.022770 2.127348 0.062412 -0.042067 -0.456646 0.114750 0.005714 0.334537 0.112716 -1.405116 -0.108188 0.000000 0.000000 0.000000 0.877385 2.801997 -0.958647 0.194513 3.537916 1.062684 0.420370 -1.728448 2.727148 0.000000 0.000000 0.000000 2.473262 3.414367 -1.663155 -0.116224 2.507884 -5.022237 0.130577 -0.358299 1.249987 0.000000 0.000000 0.000000 -0.315195 0.085080 -0.679473 -0.184594 -2.585895 0.428134 -0.360701 -0.477134 -0.016777 0.000000 0.000000 0.000000 1.191442 -2.550133 1.882148 1.276820 -0.029306 -0.219532 1.217675 -0.202296 0.519962 0.000000 0.000000 0.000000 
-3349.184082 913.878235 1111.496948 -16.549491 3.230112 -0.490106 0.177248 -0.311714 2.089071 0.054474 -0.009879 -0.431649 0.104747 -0.047787 0.323906 0.114829 -1.743244 -0.012797 0.000000 0.000000 0.000000 1.000930 2.926093 -0.897532 0.221823 3.628672 0.951916 0.448275 -1.198722 3.096319 0.000000 0.000000 0.000000 2.291171 3.598015 -1.639238 -0.097804 2.742988 -4.882621 0.100979 -0.090587 0.863367 0.000000 0.000000 0.000000 -0.438360 -0.419259 -0.631130 -0.312733 -2.778333 0.576160 -0.494968 -0.593940 -0.041222 0.000000 0.000000 0.000000 1.328949 -2.977905 2.055904 1.421439 -0.286142 -0.226458 1.357943 -0.363031 0.593726 0.000000 0.000000 0.000000 
-3345.063232 913.322937 1111.244019 -16.663048 3.984760 -0.678987 0.164797 -0.761045 2.061859 0.060610 0.028147 -0.398352 0.108218 -0.117585 0.310757 0.114806 -1.859350 0.023500 0.000000 0.000000 0.000000 1.129276 2.984722 -0.728276 0.241340 3.593695 0.742855 0.443892 -0.090707 3.376680 0.000000 0.000000 0.000000 2.129856 3.692841 -1.690130 -0.086819 2.919323 -4.574564 0.105729 0.617298 0.442645 0.000000 0.000000 0.000000 -0.604145 -0.920434 -0.601046 -0.480766 -3.006632 0.765287 -0.669972 -0.743012 -0.073928 0.000000 0.000000 0.000000 1.506468 -3.382743 2.244447 1.608255 -0.598287 -0.233348 1.538275 -0.562747 0.687772 0.000000 0.000000 0.000000 
-3340.625488 912.855042 1110.958008 -16.752169 4.628640 -0.836668 0.156428 -1.015983 2.021716 0.067908 0.049860 -0.371358 0.113272 -0.155984 0.297136 0.117706 -1.948763 0.035670 0.000000 0.000000 0.000000 1.218954 3.003905 -0.547592 0.258775 3.506728 0.521065 0.440870 0.812162 3.555655 0.000000 0.000000 0.000000 2.024538 3.697417 -1.775979 -0.073307 2.998760 -4.281210 0.140776 1.263497 0.263511 0.000000 0.000000 0.000000 -0.734721 -1.298360 -0.592799 -0.611732 -3.182989 0.927860 -0.803481 -0.926421 -0.077654 0.000000 0.000000 0.000000 1.644757 -3.669117 2.375469 1.754796 -0.878138 -0.228204 1.679390 -0.759986 0.765424 0.000000 0.000000 0.000000 
-3336.010498 912.584229 1110.670044 -16.808664 5.040389 -0.930657 0.156011 -0.894008 1.957283 0.071802 0.044872 -0.358432 0.115758 -0.140921 0.284518 0.127828 -2.054810 0.016647 0.000000 0.000000 0.000000 1.251858 2.954905 -0.369035 0.258845 3.349890 0.312823 0.422071 1.289017 3.513406 0.000000 0.000000 0.000000 2.007216 3.561935 -1.888083 -0.065494 2.910404 -4.090171 0.228264 1.768030 0.582790 0.000000 0.000000 0.000000 -0.789972 -1.439155 -0.626114 -0.664262 -3.275133 1.032476 -0.851244 -1.151808 -0.030518 0.000000 0.000000 0.000000 1.716382 -3.722095 2.401457 1.830436 -1.106404 -0.193654 1.753382 -0.943893 0.814187 0.000000 0.000000 0.000000 
-3331.080811 912.400085 1110.349976 -16.838913 5.341131 -0.992282 0.164040 -0.575263 1.879894 0.075196 0.022816 -0.352443 0.118034 -0.094998 0.271916 0.141394 -2.137561 -0.028383 0.000000 0.000000 0.000000 1.246883 2.860898 -0.193267 0.246468 3.145071 0.106070 0.394788 1.563717 3.370871 0.000000 0.000000 0.000000 2.046798 3.336615 -2.023485 -0.058742 2.721819 -3.925095 0.345582 2.214314 1.154285 0.000000 0.000000 0.000000 -0.809531 -1.456103 -0.683946 -0.679938 -3.316934 1.106525 -0.856574 -1.413546 0.046468 0.000000 0.000000 0.000000 1.749830 -3.655111 2.372930 1.865385 -1.301861 -0.145021 1.788441 -1.128560 0.847037 0.000000 0.000000 0.000000 
-3325.613281 912.168762 1109.912964 -16.822993 5.745756 -1.071588 0.171165 -0.293977 1.799887 0.076491 -0.000562 -0.347618 0.118338 -0.043377 0.259829 0.153077 -2.272966 -0.050130 0.000000 0.000000 0.000000 1.221882 2.823162 -0.107799 0.241560 3.030691 -0.063986 0.412204 1.517918 3.482707 0.000000 0.000000 0.000000 2.087478 3.172789 -2.142586 -0.041512 2.598591 -3.732261 0.404664 2.347620 1.503667 0.000000 0.000000 0.000000 -0.834435 -1.569158 -0.717704 -0.705050 -3.320350 1.167203 -0.866389 -1.695246 0.127541 0.000000 0.000000 0.000000 1.749947 -3.712054 2.364777 1.869011 -1.435221 -0.115964 1.791047 -1.309707 0.866201 0.000000 0.000000 0.000000 
-3319.677246 911.834778 1109.316040 -16.749088 6.359530 -1.190378 0.172492 -0.126688 1.721343 0.074544 -0.024477 -0.344918 0.115706 0.004815 0.250233 0.161092 -2.513683 -0.024602 0.000000 0.000000 0.000000 1.186880 2.869428 -0.143045 0.256314 3.056387 -0.158065 0.485212 1.138621 3.910459 0.000000 0.000000 0.000000 2.106850 3.113019 -2.228023 -0.014691 2.585240 -3.506193 0.379412 2.130328 1.484704 0.000000 0.000000 0.000000 -0.875081 -1.899499 -0.693072 -0.752843 -3.280081 1.207789 -0.893764 -1.989572 0.204711 0.000000 0.000000 0.000000 1.710647 -4.032660 2.412029 1.838057 -1.472387 -0.121462 1.757011 -1.485152 0.869758 0.000000 0.000000 0.000000 
